<?xml version="1.0" encoding="utf-8"?>
<!-- Generator: Adobe Illustrator 18.0.0, SVG Export Plug-In . SVG Version: 6.00 Build 0)  -->
<!DOCTYPE svg PUBLIC "-//W3C//DTD SVG 1.1//EN" "http://www.w3.org/Graphics/SVG/1.1/DTD/svg11.dtd">
<svg version="1.1" id="Layer_1" xmlns="http://www.w3.org/2000/svg" xmlns:xlink="http://www.w3.org/1999/xlink" x="0px" y="0px"
	 viewBox="0 0 612 792" enable-background="new 0 0 612 792" xml:space="preserve">
<g id="XMLID_143_">
	<path id="XMLID_2_" fill="#171714" stroke="#FFFFFF" stroke-miterlimit="10" d="M218.4,575.1v2.3h-20.6v-37.6h2.7v35.3H218.4z"/>
	<path id="XMLID_4_" fill="#171714" stroke="#FFFFFF" stroke-miterlimit="10" d="M227.5,541.9c0,0.3-0.1,0.6-0.2,0.9
		s-0.3,0.5-0.5,0.7c-0.2,0.2-0.5,0.4-0.7,0.5c-0.3,0.1-0.6,0.2-0.9,0.2c-0.3,0-0.6-0.1-0.9-0.2c-0.3-0.1-0.5-0.3-0.7-0.5
		c-0.2-0.2-0.4-0.5-0.5-0.7c-0.1-0.3-0.2-0.6-0.2-0.9c0-0.3,0.1-0.6,0.2-0.9c0.1-0.3,0.3-0.5,0.5-0.8c0.2-0.2,0.5-0.4,0.7-0.5
		c0.3-0.1,0.6-0.2,0.9-0.2c0.3,0,0.6,0.1,0.9,0.2c0.3,0.1,0.5,0.3,0.7,0.5c0.2,0.2,0.4,0.5,0.5,0.8
		C227.4,541.2,227.5,541.5,227.5,541.9z M226.4,551v26.5h-2.5V551H226.4z"/>
	<path id="XMLID_7_" fill="#171714" stroke="#FFFFFF" stroke-miterlimit="10" d="M256.7,552.2v0.9c0,0.4-0.2,0.6-0.7,0.7l-4,0.3
		c0.5,0.7,0.9,1.4,1.1,2.3c0.3,0.8,0.4,1.7,0.4,2.7c0,1.3-0.2,2.4-0.7,3.5c-0.5,1-1.1,1.9-1.9,2.7c-0.8,0.7-1.8,1.3-3,1.7
		c-1.2,0.4-2.4,0.6-3.8,0.6c-1.5,0-2.9-0.2-4.1-0.7c-0.7,0.4-1.3,0.9-1.8,1.5c-0.4,0.6-0.7,1.1-0.7,1.7c0,0.8,0.3,1.3,0.8,1.8
		c0.5,0.4,1.2,0.7,2.1,0.9c0.9,0.2,1.9,0.3,3,0.4c1.1,0.1,2.3,0.1,3.4,0.2c1.2,0.1,2.3,0.2,3.4,0.3c1.1,0.2,2.1,0.4,3,0.8
		c0.9,0.4,1.6,1,2.1,1.7c0.5,0.7,0.8,1.7,0.8,2.9c0,1.1-0.3,2.2-0.8,3.2s-1.3,1.9-2.4,2.7c-1,0.8-2.3,1.4-3.8,1.9
		c-1.5,0.5-3.1,0.7-4.9,0.7c-1.9,0-3.5-0.2-4.9-0.6s-2.6-0.9-3.5-1.5c-0.9-0.6-1.7-1.4-2.1-2.2c-0.5-0.9-0.7-1.8-0.7-2.7
		c0-1.4,0.5-2.6,1.4-3.6s2.2-1.8,3.8-2.4c-0.9-0.3-1.6-0.7-2.1-1.3c-0.5-0.6-0.8-1.4-0.8-2.4c0-0.4,0.1-0.8,0.2-1.2
		c0.1-0.4,0.4-0.8,0.6-1.2c0.3-0.4,0.6-0.8,1-1.1c0.4-0.4,0.9-0.7,1.4-1c-1.3-0.7-2.2-1.7-2.9-2.9s-1.1-2.6-1.1-4.2
		c0-1.3,0.2-2.4,0.7-3.5c0.5-1,1.1-1.9,1.9-2.7c0.8-0.7,1.8-1.3,3-1.7c1.2-0.4,2.5-0.6,3.9-0.6c1.2,0,2.2,0.1,3.2,0.4
		c1,0.3,1.9,0.7,2.6,1.2H256.7z M253.9,579.2c0-0.8-0.2-1.5-0.7-2c-0.4-0.5-1-0.9-1.7-1.2c-0.7-0.3-1.6-0.5-2.5-0.6
		c-0.9-0.1-1.9-0.2-3-0.3c-1-0.1-2.1-0.1-3.1-0.2c-1-0.1-2-0.2-3-0.3c-0.7,0.3-1.3,0.6-1.9,0.9c-0.6,0.3-1.1,0.7-1.5,1.2
		c-0.4,0.4-0.7,0.9-1,1.4c-0.2,0.5-0.3,1.1-0.3,1.7c0,0.8,0.2,1.5,0.6,2.2c0.4,0.7,1,1.2,1.8,1.7c0.8,0.5,1.7,0.9,2.8,1.2
		c1.1,0.3,2.4,0.4,3.9,0.4c1.3,0,2.6-0.2,3.8-0.5c1.2-0.3,2.2-0.7,3-1.3c0.9-0.5,1.5-1.2,2-2C253.7,581,253.9,580.1,253.9,579.2z
		 M244,565.7c1.1,0,2.1-0.2,3-0.5c0.9-0.3,1.6-0.8,2.2-1.4c0.6-0.6,1.1-1.3,1.4-2.1c0.3-0.8,0.5-1.7,0.5-2.7c0-1-0.2-1.9-0.5-2.7
		c-0.3-0.8-0.8-1.5-1.4-2.1c-0.6-0.6-1.4-1-2.2-1.4c-0.9-0.3-1.9-0.5-3-0.5c-1.1,0-2.1,0.2-3,0.5c-0.9,0.3-1.6,0.8-2.2,1.4
		c-0.6,0.6-1.1,1.3-1.4,2.1c-0.3,0.8-0.5,1.7-0.5,2.7c0,1,0.2,1.9,0.5,2.7c0.3,0.8,0.8,1.5,1.4,2.1s1.4,1,2.2,1.4
		C241.9,565.6,242.9,565.7,244,565.7z"/>
	<path id="XMLID_11_" fill="#171714" stroke="#FFFFFF" stroke-miterlimit="10" d="M265.1,555.5c1.2-1.5,2.6-2.7,4.2-3.6
		c1.6-0.9,3.3-1.3,5.3-1.3c1.5,0,2.7,0.2,3.8,0.7c1.1,0.5,2,1.1,2.8,2c0.7,0.9,1.3,1.9,1.6,3.1c0.4,1.2,0.6,2.6,0.6,4.1v16.9h-2.6
		v-16.9c0-2.5-0.6-4.4-1.7-5.8c-1.1-1.4-2.9-2.1-5.2-2.1c-1.7,0-3.3,0.4-4.8,1.3c-1.5,0.9-2.8,2.1-4,3.7v19.9h-2.6v-38.7h2.6V555.5z
		"/>
	<path id="XMLID_13_" fill="#171714" stroke="#FFFFFF" stroke-miterlimit="10" d="M298.7,577.9c-1.8,0-3.2-0.5-4.2-1.5
		c-1-1-1.5-2.5-1.5-4.6v-18.1h-3.8c-0.2,0-0.4-0.1-0.5-0.2c-0.1-0.1-0.2-0.3-0.2-0.5v-1l4.5-0.3l0.6-9.5c0-0.2,0.1-0.3,0.2-0.4
		c0.1-0.1,0.3-0.2,0.5-0.2h1.2v10.1h8.4v1.9h-8.4v18c0,0.7,0.1,1.4,0.3,1.9c0.2,0.5,0.4,1,0.8,1.3c0.3,0.3,0.7,0.6,1.2,0.7
		c0.4,0.2,0.9,0.2,1.4,0.2c0.6,0,1.2-0.1,1.6-0.3c0.5-0.2,0.9-0.4,1.2-0.6c0.3-0.2,0.6-0.4,0.8-0.6c0.2-0.2,0.4-0.3,0.5-0.3
		c0.1,0,0.3,0.1,0.4,0.3l0.7,1.1c-0.7,0.7-1.5,1.3-2.6,1.8C300.9,577.6,299.8,577.9,298.7,577.9z"/>
	<path id="XMLID_15_" fill="#171714" stroke="#FFFFFF" stroke-miterlimit="10" d="M322.8,539c2.5,0,4.7,0.2,6.5,0.7
		c1.8,0.5,3.3,1.2,4.4,2c1.1,0.9,2,2,2.5,3.2c0.5,1.3,0.8,2.7,0.8,4.3c0,0.9-0.1,1.8-0.4,2.6c-0.3,0.8-0.7,1.6-1.2,2.3
		c-0.6,0.7-1.3,1.4-2.1,2c-0.9,0.6-1.9,1.1-3.1,1.5c5.3,1.2,7.9,4,7.9,8.6c0,1.6-0.3,3.1-0.9,4.5c-0.6,1.4-1.5,2.6-2.7,3.6
		c-1.2,1-2.7,1.8-4.4,2.4c-1.7,0.6-3.7,0.9-6,0.9h-14.5V539H322.8z M316.7,544.5v11.1h5.7c2.4,0,4.3-0.4,5.5-1.3
		c1.3-0.9,1.9-2.3,1.9-4.2c0-2-0.6-3.4-1.7-4.3c-1.1-0.9-2.9-1.3-5.3-1.3H316.7z M324,571.9c1.3,0,2.4-0.2,3.4-0.5
		c0.9-0.3,1.6-0.7,2.2-1.3c0.5-0.5,0.9-1.2,1.2-1.9c0.2-0.7,0.4-1.5,0.4-2.3c0-0.8-0.1-1.6-0.4-2.2c-0.3-0.7-0.7-1.2-1.2-1.7
		c-0.6-0.5-1.3-0.8-2.2-1.1c-0.9-0.2-2-0.4-3.2-0.4h-7.2v11.3H324z"/>
	<path id="XMLID_19_" fill="#171714" stroke="#FFFFFF" stroke-miterlimit="10" d="M366.6,550.2v27.3h-4c-0.9,0-1.4-0.4-1.6-1.2
		l-0.5-2.2c-1.1,1.1-2.4,2.1-3.7,2.8c-1.3,0.7-2.9,1-4.8,1c-1.5,0-2.8-0.3-3.9-0.8c-1.1-0.5-2.1-1.2-2.9-2.1c-0.8-0.9-1.4-2-1.8-3.3
		c-0.4-1.3-0.6-2.7-0.6-4.2v-17.3h6.6v17.3c0,1.7,0.4,3,1.2,3.9c0.8,0.9,1.9,1.4,3.5,1.4c1.1,0,2.2-0.3,3.2-0.8
		c1-0.5,1.9-1.2,2.8-2.1v-19.7H366.6z"/>
	<path id="XMLID_21_" fill="#171714" stroke="#FFFFFF" stroke-miterlimit="10" d="M379.7,537.9v39.5h-6.6v-39.5H379.7z"/>
	<path id="XMLID_23_" fill="#171714" stroke="#FFFFFF" stroke-miterlimit="10" d="M392.9,553.5c1.1-1.2,2.3-2.1,3.7-2.8
		c1.3-0.7,2.9-1,4.6-1c1.6,0,3,0.3,4.3,0.9c1.3,0.6,2.3,1.5,3.2,2.7c0.9,1.2,1.6,2.6,2.1,4.2c0.5,1.6,0.7,3.5,0.7,5.6
		c0,2.2-0.3,4.2-0.8,6c-0.5,1.8-1.3,3.4-2.4,4.6s-2.2,2.3-3.7,3c-1.4,0.7-3,1.1-4.8,1.1c-0.9,0-1.6-0.1-2.3-0.3
		c-0.7-0.2-1.3-0.4-1.9-0.7c-0.6-0.3-1.1-0.7-1.6-1.1c-0.5-0.4-1-0.9-1.4-1.4l-0.3,1.8c-0.1,0.5-0.3,0.8-0.5,1
		c-0.3,0.2-0.6,0.3-1,0.3h-4.3v-39.5h6.6V553.5z M392.9,570.4c0.7,0.9,1.6,1.5,2.4,1.9c0.9,0.4,1.8,0.6,2.8,0.6c1,0,1.9-0.2,2.7-0.5
		c0.8-0.4,1.5-0.9,2.1-1.7c0.6-0.8,1-1.8,1.3-3c0.3-1.2,0.5-2.6,0.5-4.3c0-3-0.5-5.2-1.5-6.5c-1-1.3-2.4-2-4.3-2
		c-1.3,0-2.4,0.3-3.3,0.9c-0.9,0.6-1.8,1.4-2.7,2.4V570.4z"/>
</g>
<g>
	<g id="XMLID_1_">
		<g id="XMLID_192_">
			<path id="XMLID_193_" fill="#171714" stroke="#FFFFFF" stroke-miterlimit="10" d="M306.2,460.1c0.9-0.1,2,0.1,2.9,0.4 M309,454.7
				"/>
		</g>
		<g id="XMLID_188_">
			<path id="XMLID_189_" fill="#171714" stroke="#FFFFFF" stroke-miterlimit="10" d="M306.5,460.1c1,0,2.1,0.2,2.9,0.6 M311.2,456"
				/>
		</g>
		<g id="XMLID_176_">
			<path id="XMLID_177_" fill="#171714" stroke="#FFFFFF" stroke-miterlimit="10" d="M306.2,460.3c0.9,0,1.8,0.1,2.6,0.2
				c0.5,0,0.8,0.2,0.9,0.4 M309,459.2"/>
		</g>
		<g id="XMLID_277_">
			<path id="XMLID_278_" fill="#171714" stroke="#FFFFFF" stroke-miterlimit="10" d="M306.1,460.5c0.9-0.3,2-0.5,2.9-0.4
				 M306.3,454.7"/>
		</g>
		<g id="XMLID_273_">
			<path id="XMLID_274_" fill="#171714" stroke="#FFFFFF" stroke-miterlimit="10" d="M305.8,460.6c0.9-0.3,2-0.6,2.9-0.6 M304,456"
				/>
		</g>
		<g id="XMLID_266_">
			<path id="XMLID_267_" fill="#171714" stroke="#FFFFFF" stroke-miterlimit="10" d="M305.5,461c0.1-0.2,0.4-0.4,0.9-0.4
				c0.9-0.1,1.8-0.2,2.6-0.2 M306.3,459.2"/>
		</g>
	</g>
	<g>
		<polygon fill="#010101" stroke="#FFFFFF" stroke-miterlimit="10" points="343.2,452.7 269.8,458.1 269,459.2 266.6,462.6 269,466 
			269.7,467 343.1,461.6 343.9,460.5 346.3,457.1 343.9,453.7 343.2,452.7 		"/>
		<polygon fill="#010101" stroke="#FFFFFF" stroke-miterlimit="10" points="343.9,463.7 269.1,469.2 269,469.2 269,472.4 
			343.8,466.9 343.9,466.9 343.9,463.7 		"/>
		<polygon fill="#010101" stroke="#FFFFFF" stroke-miterlimit="10" points="343.2,469.2 269.8,474.6 269,475.6 266.6,479.1 
			269,482.5 269.7,483.5 343.1,478.1 343.9,477 346.3,473.6 343.9,470.2 343.2,469.2 		"/>
		<polygon fill="#010101" stroke="#FFFFFF" stroke-miterlimit="10" points="343.9,480.2 269.1,485.8 269,485.8 269,488.9 
			343.8,483.4 343.9,483.4 343.9,480.2 		"/>
		<polygon fill="#010101" stroke="#FFFFFF" stroke-miterlimit="10" points="343.2,485.7 269.8,491.1 269,492.2 266.6,495.6 
			269,499.1 269.7,500 343.1,494.6 343.9,493.5 346.3,490.1 343.9,486.7 343.2,485.7 		"/>
		<polygon fill="#010101" stroke="#FFFFFF" stroke-miterlimit="10" points="343.9,496.8 269.1,502.3 269,502.3 269,505.5 282,512 
			282.2,511.1 330.9,511.1 331.1,512 343.9,505.5 		"/>
		<polygon fill="#010101" stroke="#FFFFFF" stroke-miterlimit="10" points="287.4,513.3 295,516.7 295.7,517 295.7,517.7 
			317.4,517.7 317.4,517 318.1,516.7 325.7,513.3 		"/>
	</g>
</g>
<g>
	<g id="XMLID_38_">
		<g id="XMLID_39_">
			<g id="XMLID_214_">
				<path id="XMLID_215_" fill="#171714" stroke="#FFFFFF" stroke-miterlimit="10" d="M306.8,253.6V449h45.2v-26l42.7-93.2
					c-0.4-0.1-0.8-0.4-0.8-0.9c0-0.4,0-0.8,0-1.1c0-0.3,0.1-0.6,0.3-0.8l-33.6-54.4L306.8,253.6z M308.8,256.4l50.5,17.8l33.6,54.5
					l-43,93.8V447h-41.1V256.4z"/>
			</g>
			<g id="XMLID_50_">
				<path id="XMLID_51_" fill="#171714" stroke="#FFFFFF" stroke-miterlimit="10" d="M360.7,273.2c-0.1-0.2-0.1-0.5,0-0.7L308,253.2
					c-0.1,0.2-0.3,0.4-0.6,0.6c-0.2,0.1-0.4,0.2-0.6,0.3v193.2c0.7-0.1,1.5,0.1,2.2,0.5l52-174.1
					C360.9,273.5,360.8,273.4,360.7,273.2z M308.8,441V256.4l49.9,17.6L308.8,441z"/>
			</g>
			<g id="XMLID_48_">
				<path id="XMLID_49_" fill="#171714" stroke="#FFFFFF" stroke-miterlimit="10" d="M309.2,447.9l85.4-118.1
					c-0.4-0.1-0.6-0.4-0.7-0.9c0-0.4,0-0.8,0-1.1c0-0.2,0-0.3,0.1-0.5l-40.8-34.8L307,447.2C307.7,447.2,308.5,447.5,309.2,447.9z
					 M392.7,328.8l-82.2,113.7L354.3,296L392.7,328.8z"/>
			</g>
			<g id="XMLID_46_">
				<path id="XMLID_47_" fill="#171714" stroke="#FFFFFF" stroke-miterlimit="10" d="M309.4,448.2l41.9-24.5c0-0.2,0-0.3,0-0.5
					c0.1-0.4,0.3-0.7,0.5-1l-45-74.4v99.7c0.7,0.1,1.3,0.1,2,0.2C309.1,447.8,309.3,448,309.4,448.2z M349.5,422.4l-40.7,23.8v-91
					L349.5,422.4z"/>
			</g>
			<g id="XMLID_171_">
				<path id="XMLID_172_" fill="#171714" stroke="#FFFFFF" stroke-miterlimit="10" d="M394.5,327.7l-86.8-74.1
					c-0.1,0.1-0.2,0.1-0.3,0.2c-0.2,0.1-0.4,0.2-0.6,0.3v98.8l87.5-23.2c0,0,0,0,0-0.1C394,328.9,393.8,328.2,394.5,327.7
					C394.5,327.7,394.5,327.7,394.5,327.7z M308.8,350.2v-92.9l83.1,70.9L308.8,350.2z"/>
			</g>
			<g id="XMLID_167_">
				<path id="XMLID_168_" fill="#171714" stroke="#FFFFFF" stroke-miterlimit="10" d="M306.8,293.2v61.2l48.1-60
					c-0.4-0.3-0.6-0.8-0.4-1.2H306.8z M308.8,295.3h42.8l-42.8,53.3V295.3z"/>
			</g>
			<g id="XMLID_147_">
				<path id="XMLID_148_" fill="#171714" stroke="#FFFFFF" stroke-miterlimit="10" d="M350.9,424.5l36.8-50.3l0-0.2l7.3-45
					c-0.2-0.1-0.3-0.2-0.4-0.3c-0.4-0.5-0.7-1-1-1.6l-43.8,95.7c0.3,0.1,0.6,0.3,0.7,0.6c0,0,0,0,0,0.1c0,0.1,0.1,0.2,0.1,0.3
					C350.7,424,350.8,424.2,350.9,424.5z M385.8,373.4L356.1,414l35.8-78.1L385.8,373.4z"/>
			</g>
			<g id="XMLID_285_">
				<path id="XMLID_286_" fill="#171714" stroke="#FFFFFF" stroke-miterlimit="10" d="M255,272.6l-33.6,54.4
					c0.2,0.2,0.3,0.4,0.3,0.8c0,0.4,0,0.8,0,1.1c0,0.6-0.4,0.9-0.8,0.9l42.7,93.2v26h45.2V253.6L255,272.6z M306.8,447h-41.1v-24.4
					l-43-93.8l33.6-54.5l50.5-17.8V447z"/>
			</g>
			<g id="XMLID_44_">
				<path id="XMLID_45_" fill="#171714" stroke="#FFFFFF" stroke-miterlimit="10" d="M254.6,273.6l52,174.1c0.7-0.4,1.5-0.6,2.2-0.5
					V254.1c-0.2-0.1-0.4-0.2-0.6-0.3c-0.3-0.1-0.5-0.3-0.6-0.6l-52.7,19.3c0,0.2,0.1,0.4,0,0.7C254.8,273.4,254.7,273.5,254.6,273.6
					z M256.9,274.1l49.9-17.6V441L256.9,274.1z"/>
			</g>
			<g id="XMLID_42_">
				<path id="XMLID_43_" fill="#171714" stroke="#FFFFFF" stroke-miterlimit="10" d="M308.6,447.2l-46.3-154.8l-40.8,34.8
					c0.1,0.1,0.1,0.3,0.1,0.5c0,0.4,0,0.8,0,1.1c0,0.5-0.3,0.8-0.7,0.9l85.4,118.1C307.1,447.5,307.9,447.2,308.6,447.2z M261.3,296
					l43.8,146.5l-82.2-113.7L261.3,296z"/>
			</g>
			<g id="XMLID_40_">
				<path id="XMLID_41_" fill="#171714" stroke="#FFFFFF" stroke-miterlimit="10" d="M306.9,447.7c0.7-0.1,1.3-0.2,2-0.2v-99.7
					l-45,74.4c0.2,0.3,0.4,0.6,0.5,1c0.1,0.2,0,0.4,0,0.5l41.9,24.5C306.3,448,306.5,447.8,306.9,447.7z M306.8,355.2v91l-40.7-23.8
					L306.8,355.2z"/>
			</g>
			<g id="XMLID_262_">
				<path id="XMLID_263_" fill="#171714" stroke="#FFFFFF" stroke-miterlimit="10" d="M221.1,327.7c0.6,0.5,0.5,1.2,0.2,1.9
					c0,0,0,0,0,0.1l87.5,23.2v-98.8c-0.2-0.1-0.4-0.2-0.6-0.3c-0.1,0-0.2-0.1-0.3-0.2L221.1,327.7
					C221.1,327.7,221.1,327.7,221.1,327.7z M223.7,328.2l83.1-70.9v92.9L223.7,328.2z"/>
			</g>
			<g id="XMLID_258_">
				<path id="XMLID_259_" fill="#171714" stroke="#FFFFFF" stroke-miterlimit="10" d="M261.1,293.2c0.1,0.4,0,1-0.4,1.2l48.1,60
					v-61.2H261.1z M306.8,348.6L264,295.3h42.8V348.6z"/>
			</g>
			<g id="XMLID_238_">
				<path id="XMLID_239_" fill="#171714" stroke="#FFFFFF" stroke-miterlimit="10" d="M265,423.7c0-0.1,0.1-0.2,0.1-0.3
					c0,0,0,0,0-0.1c0.1-0.3,0.4-0.5,0.7-0.6L222,327.1c-0.3,0.5-0.6,1.1-1,1.6c-0.1,0.2-0.3,0.3-0.4,0.3l7.3,45l0,0.2l36.8,50.3
					C264.8,424.2,264.9,424,265,423.7z M223.8,336l35.8,78.1l-29.7-40.6L223.8,336z"/>
			</g>
		</g>
	</g>
	<polygon id="XMLID_218_" fill="#171714" stroke="#FFFFFF" stroke-miterlimit="10" points="221.4,326.9 220.5,328.4 220.6,329.1 
		222.4,327.8 222,326.7 	"/>
	<g id="XMLID_196_">
		<path id="XMLID_197_" fill="#171714" stroke="#FFFFFF" stroke-miterlimit="10" d="M307.3,255.9l86.8,74.1c0.1-0.1,0.2-0.2,0.3-0.4
			c-0.3-0.2-0.5-0.4-0.5-0.8c0-0.4,0-0.8,0-1.1c0-0.3,0.1-0.6,0.3-0.8l-33.6-54.4l-53.3-18.8c0,0,0,0,0,0c0.2,0.3,0.2,0.7,0,1
			C307.4,255.2,307.3,255.5,307.3,255.9z M312.6,257.8l46.6,16.5l30.5,49.4L312.6,257.8z"/>
	</g>
	<polygon id="XMLID_146_" fill="#171714" stroke="#FFFFFF" stroke-miterlimit="10" points="394.2,326.9 395.1,328.4 395,329.1 
		393.2,327.8 393.6,326.7 	"/>
	<polygon id="XMLID_145_" fill="#171714" stroke="#FFFFFF" stroke-miterlimit="10" points="306.7,253.6 307.8,253.1 308.2,253.3 
		307.4,254.3 	"/>
	<g id="XMLID_281_">
		<path id="XMLID_282_" fill="#171714" stroke="#FFFFFF" stroke-miterlimit="10" d="M308.2,254.9c-0.2-0.3-0.2-0.7,0-1c0,0,0,0,0,0
			L255,272.7L221.4,327c0.2,0.2,0.4,0.4,0.3,0.8c0,0.4,0,0.8,0,1.1c0,0.4-0.2,0.7-0.5,0.8c0.1,0.1,0.2,0.2,0.3,0.4l86.8-74.1
			C308.3,255.6,308.2,255.3,308.2,254.9z M225.8,323.8l30.5-49.4l46.6-16.5L225.8,323.8z"/>
	</g>
	<polygon id="XMLID_237_" fill="#171714" stroke="#FFFFFF" stroke-miterlimit="10" points="221.4,327 220.5,328.5 220.6,329.2 
		222.4,327.9 222,326.8 	"/>
	<polygon id="XMLID_236_" fill="#171714" stroke="#FFFFFF" stroke-miterlimit="10" points="308.9,253.7 307.9,253.3 307.4,253.4 
		308.2,254.4 	"/>
</g>
<text transform="matrix(1 0 0 1 266.6667 607.333)" font-family="'MyanmarText'" font-size="14">FRAMEWORK</text>
</svg>
